<?xml version="1.0" encoding="utf-8"?>
<!-- Generator: Adobe Illustrator 27.6.1, SVG Export Plug-In . SVG Version: 6.00 Build 0)  -->
<svg version="1.1" id="Layer_1" xmlns="http://www.w3.org/2000/svg" xmlns:xlink="http://www.w3.org/1999/xlink" x="0px" y="0px"
	 viewBox="0 0 1544 500" style="enable-background:new 0 0 1544 500;" xml:space="preserve">
<style type="text/css">
	.st0{fill:#FFFEF1;stroke:#154496;stroke-width:0.25;stroke-miterlimit:10;}
	.st1{fill:#ED6C25;}
	.st2{fill:#154496;}
	.st3{font-family:'FreestyleScript-Regular';}
	.st4{font-size:66.8724px;}
	.st5{fill:#FFFEF3;}
</style>
<rect class="st0" width="1544" height="500"/>
<g>
	<g>
		<path class="st1" d="M1065.5,279.3H478.6v-46.9h586.9V279.3z M481.6,276.3h580.9v-40.9H481.6V276.3z"/>
	</g>
</g>
<rect x="484.6" y="238.4" class="st1" width="435.5" height="34.9"/>
<text transform="matrix(1 0 0 1 617.9272 205.5685)" class="st2 st3 st4">Updates loading...</text>
<g>
	<g>
		<path class="st2" d="M797.4,323.5c-7.1-0.1-13.2,5.6-13.3,12.7s5.6,13.2,12.7,13.3s13.2-5.6,13.3-12.7
			C810.3,329.5,804.5,323.6,797.4,323.5z M797.2,344.8c-4.5,0-8.3-3.7-8.3-8.3c0-4.5,3.7-8.3,8.3-8.3s8.3,3.7,8.3,8.3
			C805.4,341,801.7,344.8,797.2,344.8z"/>
		<path class="st2" d="M818,338.5c0.1-1.5,0.1-3.1,0-4.5l-3.5-0.8c-0.2-0.9-0.5-1.8-0.8-2.7l2.6-2.6c-0.3-0.7-0.7-1.4-1-2
			c-0.3-0.7-0.8-1.2-1.2-1.9l-3.5,1c-0.7-0.7-1.4-1.4-2-2l1-3.5c-1.2-0.9-2.6-1.6-4-2.3l-2.5,2.6c-0.9-0.3-1.8-0.6-2.7-0.7l-0.9-3.5
			c-1.5-0.1-3.1-0.1-4.5,0l-1,3.4c-0.9,0.2-1.8,0.5-2.7,0.8l-2.6-2.6c-0.7,0.3-1.4,0.7-2,1s-1.2,0.8-1.9,1.2l1,3.5
			c-0.7,0.7-1.4,1.4-2,2l-3.5-1c-0.9,1.2-1.6,2.6-2.3,4l2.6,2.5c-0.3,0.9-0.6,1.8-0.7,2.7l-3.5,0.9c-0.1,1.5-0.1,3.1,0,4.5l3.5,0.8
			c0.2,0.9,0.5,1.8,0.8,2.7l-2.6,2.6c0.3,0.7,0.7,1.4,1,2c0.3,0.7,0.8,1.2,1.2,1.9l3.5-1c0.7,0.7,1.4,1.4,2,2l-0.9,3.5
			c1.2,0.9,2.6,1.6,4,2.3l2.5-2.6c0.9,0.3,1.8,0.6,2.7,0.7l0.9,3.5c1.5,0.1,3.1,0.1,4.5,0l0.8-3.5c0.9-0.2,1.8-0.5,2.7-0.8l2.6,2.6
			c0.7-0.3,1.4-0.7,2-1s1.2-0.8,1.9-1.2l-1-3.5c0.7-0.7,1.4-1.4,2-2l3.5,1c0.9-1.2,1.6-2.6,2.3-4l-2.6-2.5c0.3-0.9,0.6-1.8,0.7-2.7
			L818,338.5z M796.8,350c-7.5-0.1-13.5-6.4-13.3-13.8c0.1-7.5,6.4-13.5,13.8-13.3c7.5,0.1,13.5,6.4,13.3,13.8
			C810.5,344.2,804.3,350.1,796.8,350z"/>
		<path class="st5" d="M797.4,322.9c-7.5-0.1-13.7,5.8-13.8,13.3s5.8,13.7,13.3,13.8c7.5,0.1,13.7-5.8,13.8-13.3
			C810.9,329.2,804.9,323,797.4,322.9z M796.8,349.4c-7.1-0.1-12.9-6.1-12.7-13.3c0.1-7.1,6.1-12.9,13.3-12.7
			c7.1,0.1,12.9,6.1,12.7,13.3C810,343.9,804,349.5,796.8,349.4z"/>
	</g>
	<g>
		<path class="st2" d="M751.1,303.3c-8.5-0.2-15.6,6.6-15.8,15.2c-0.2,8.5,6.6,15.6,15.2,15.8c8.5,0.2,15.6-6.6,15.8-15.2
			C766.4,310.5,759.6,303.5,751.1,303.3z M750.8,328.7c-5.4,0-9.9-4.4-9.9-9.9c0-5.4,4.4-9.9,9.9-9.9s9.9,4.4,9.9,9.9
			C760.7,324.3,756.3,328.7,750.8,328.7z"/>
		<path class="st2" d="M775.7,321.2c0.2-1.8,0.1-3.6,0-5.4l-4.2-1c-0.2-1.1-0.6-2.2-0.9-3.3l3.1-3.1c-0.3-0.8-0.8-1.6-1.2-2.4
			c-0.5-0.8-1-1.6-1.5-2.3l-4.2,1.2c-0.8-0.9-1.6-1.7-2.4-2.4l1.1-4.2c-1.5-1-3.1-1.9-4.8-2.6l-2.9,3.2c-1-0.3-2.2-0.7-3.3-0.9
			l-1.1-4.2c-1.8-0.2-3.6-0.1-5.4,0.1l-1,4.2c-1.1,0.2-2.2,0.6-3.3,0.9l-3.1-3.1c-0.8,0.3-1.6,0.8-2.4,1.2c-0.8,0.5-1.6,1-2.3,1.5
			l1.2,4.2c-0.9,0.8-1.7,1.6-2.4,2.4l-4.2-1.1c-1,1.5-1.9,3.1-2.6,4.8l3.2,2.9c-0.3,1-0.7,2.2-0.8,3.3l-4.2,1.1
			c-0.2,1.8-0.1,3.6,0,5.4l4.2,1c0.2,1.1,0.6,2.2,0.9,3.3l-3.1,3.1c0.3,0.8,0.8,1.6,1.2,2.4c0.5,0.8,1,1.6,1.5,2.3l4.2-1.2
			c0.8,0.9,1.6,1.7,2.4,2.4l-1.1,4.2c1.5,1,3.1,1.9,4.8,2.6l2.9-3.2c1.1,0.3,2.2,0.7,3.3,0.8l1.1,4.2c1.8,0.1,3.6,0.1,5.4-0.1l1-4.2
			c1.1-0.2,2.2-0.6,3.3-0.9l3.1,3.1c0.8-0.3,1.6-0.8,2.4-1.2s1.6-1,2.3-1.5l-1.2-4.2c0.9-0.8,1.7-1.6,2.4-2.4l4.2,1.1
			c1-1.5,1.9-3.1,2.6-4.8l-3.2-2.9c0.3-1,0.7-2.2,0.8-3.3L775.7,321.2z M750.4,334.9c-8.8-0.2-16-7.6-15.8-16.4s7.6-16,16.4-15.8
			c8.8,0.2,16,7.6,15.8,16.4C766.8,328,759.4,335,750.4,334.9z"/>
		<path class="st5" d="M751.1,302.6c-8.8-0.2-16.3,6.9-16.4,15.8c-0.2,8.8,6.9,16.3,15.8,16.4c8.8,0.2,16.3-6.9,16.4-15.8
			C767.1,310.2,760.1,302.8,751.1,302.6z M750.6,334.2c-8.5-0.2-15.3-7.3-15.2-15.8c0.2-8.5,7.3-15.3,15.8-15.2
			c8.5,0.2,15.3,7.3,15.2,15.8C766.1,327.7,759.1,334.5,750.6,334.2z"/>
	</g>
</g>
</svg>
