<?xml version="1.0" encoding="utf-8"?>
<!-- Generator: Adobe Illustrator 27.6.1, SVG Export Plug-In . SVG Version: 6.00 Build 0)  -->
<svg version="1.1" id="Layer_2_00000106106649228194372880000011015229677829774999_"
	 xmlns="http://www.w3.org/2000/svg" xmlns:xlink="http://www.w3.org/1999/xlink" x="0px" y="0px" viewBox="0 0 256 256"
	 style="enable-background:new 0 0 256 256;" xml:space="preserve">
<style type="text/css">
	.st0{fill:#154496;}
	.st1{fill:#ED6C25;}
	.st2{fill:#164194;}
</style>
<circle class="st0" cx="128" cy="128" r="128"/>
<g>
	<path class="st1" d="M129.2,71.3C97.9,70.6,72,95.5,71.3,126.8c-0.7,31.3,24.3,57.2,55.5,57.9c31.3,0.7,57.2-24.2,57.9-55.5
		S160.5,71.9,129.2,71.3z M128,164.2c-20,0-36.2-16.2-36.2-36.2S108,91.8,128,91.8s36.2,16.2,36.2,36.2S148,164.2,128,164.2z"/>
	<path class="st1" d="M219.1,137c0.7-6.6,0.6-13.2-0.2-19.9l-15.4-3.7c-0.8-4-2-8.1-3.4-12l11.3-11.2c-1.4-3-2.9-6-4.6-8.9
		c-1.7-2.9-3.5-5.6-5.5-8.3L186,77.6c-2.8-3.2-5.8-6.1-8.9-8.8l4.2-15.3c-5.4-3.9-11.2-7.2-17.3-9.8l-10.9,11.6
		c-3.9-1.4-8-2.4-12.1-3.1l-4-15.4c-6.6-0.6-13.2-0.6-19.9,0.2l-3.7,15.4c-4,0.8-8,1.9-12,3.4L90.2,44.6c-3,1.4-6,2.9-8.8,4.6
		c-2.9,1.7-5.6,3.6-8.3,5.5L77.6,70c-3.2,2.8-6.1,5.7-8.8,8.9l-15.3-4.2c-3.9,5.4-7.1,11.2-9.8,17.3l11.5,10.9
		c-1.4,3.9-2.4,8-3.1,12.1l-15.4,4c-0.6,6.6-0.6,13.2,0.2,19.9l15.5,3.7c0.8,4.1,1.9,8.1,3.4,12.1l-11.3,11.1c1.4,3,2.9,6,4.6,8.8
		c1.7,2.9,3.6,5.7,5.5,8.3l15.2-4.5c2.8,3.2,5.8,6.1,8.9,8.8l-4.2,15.3c5.4,3.9,11.2,7.2,17.3,9.7l11-11.5c4,1.4,8,2.4,12.1,3.1
		l4,15.4c6.6,0.6,13.2,0.6,19.9-0.2l3.7-15.5c4.1-0.8,8.1-1.9,12-3.4l11.2,11.3c3-1.3,5.9-2.9,8.8-4.6s5.6-3.6,8.3-5.5l-4.5-15.2
		c3.2-2.8,6.1-5.8,8.8-8.9l15.3,4.2c3.9-5.4,7.2-11.2,9.7-17.3l-11.5-11c1.3-3.9,2.4-8,3.1-12.1L219.1,137z M126.7,187.2
		c-32.6-0.7-58.6-27.8-57.9-60.4s27.8-58.6,60.4-57.9s58.6,27.8,57.9,60.4C186.5,161.9,159.4,187.8,126.7,187.2z"/>
	<path class="st2" d="M129.2,68.8c-32.6-0.7-59.7,25.3-60.4,57.9s25.3,59.7,57.9,60.4s59.7-25.3,60.4-57.9
		C187.8,96.6,161.9,69.5,129.2,68.8z M126.8,184.7c-31.3-0.7-56.2-26.6-55.5-57.9s26.6-56.2,57.9-55.5c31.3,0.7,56.2,26.6,55.5,57.9
		C184,160.4,158.1,185.4,126.8,184.7z"/>
</g>
</svg>
